<?xml version="1.0" encoding="utf-8"?>
<!-- Generator: Adobe Illustrator 17.1.0, SVG Export Plug-In . SVG Version: 6.00 Build 0)  -->
<!DOCTYPE svg PUBLIC "-//W3C//DTD SVG 1.1//EN" "http://www.w3.org/Graphics/SVG/1.1/DTD/svg11.dtd">
<svg version="1.1" id="Layer_1" xmlns="http://www.w3.org/2000/svg" xmlns:xlink="http://www.w3.org/1999/xlink" x="0px" y="0px"
	 viewBox="0 18.7 36 17.3" enable-background="new 0 18.7 36 17.3" xml:space="preserve">
<g opacity="0.4">
	<g>
		<g>
			<path fill="#FFFFFF" d="M1.1,36.1c-0.7-0.4-0.9-0.8-0.8-1.7c0.2-1.5,0.9-2.8,1.8-4c1-1.3,2.2-2.3,3.7-3.1
				c0.2-0.1,0.3-0.2,0.3-0.5c0-1.1,0-2.2,0-3.3c0-1,0.3-2,1.1-2.6c0.3-0.2,0.6-0.4,1-0.6c-0.8,0.9-0.8,2-0.8,3.1s0.2,2.1,0.2,3.2
				c0.2,0.1,0.4,0.1,0.6,0.2c0,0,0,0,0,0.1c-0.1,0-0.2,0-0.2,0c-0.3-0.1-0.4,0.1-0.4,0.3c0,0.8,0,1.6-0.1,2.4c-0.2,1-0.5,1.9-1,2.8
				c-0.8,1.3-2,2.2-3.3,2.9c-0.4,0.2-0.9,0.3-1.4,0.5C1.6,36.1,1.3,36.1,1.1,36.1z M6.1,27.5C6,27.5,6,27.5,6.1,27.5
				c-0.2,0-0.3,0.1-0.4,0.1c-2.3,1.2-3.8,3.1-4.8,5.4c-0.3,0.7-0.4,1.4-0.3,2.2c0.1,0.5,0.3,0.6,0.8,0.6c1.2,0,2.1-0.5,2.8-1.4
				C5.7,32.4,6,30,6.1,27.5z"/>
			<path fill="#FFFFFF" d="M19.5,27.5L19.5,27.5c-0.4,0.9-0.8,1.8-1.3,2.6c-0.5,0.8-1.4,0.8-1.9,0c-0.3-0.4-0.5-0.9-0.7-1.3
				c-0.1-0.3-0.2-0.5-0.4-0.8c-0.2-0.3-0.4-0.3-0.6,0c-0.3,0.5-0.5,1-0.7,1.5c-0.1,0.3-0.2,0.6-0.4,0.8c-0.1,0.1-0.3,0.3-0.3,0.2
				c-0.1,0-0.3-0.2-0.3-0.4c-0.1-0.2-0.1-0.4-0.1-0.7c0-0.5,0-1,0-1.5c-0.5,0.4-0.9,1.1-1.7,0.6c-0.2,0.4-0.4,0.8-0.6,1.2
				c-0.2,0.4-0.5,0.4-0.9,0.2c-0.5-0.3-0.8-0.7-0.8-1.3c-0.1-1.1,0.1-2.1,1-2.9c0.5-0.4,1.1-0.2,1.3,0.3c-1.2,0.9-1.9,2.5-1.6,3.5
				c0,0.1,0.1,0.2,0.1,0.3c0.1,0.2,0.3,0.3,0.5,0c0.4-0.6,0.8-1.2,0.6-2.1c-0.1-0.3,0-0.5,0-0.8c0-0.1,0.1-0.2,0.2-0.3
				c0.1,0.1,0.3,0.2,0.3,0.3c0,0.4-0.1,0.7-0.1,1.1c0,0.5,0.2,0.6,0.5,0.5c0.7-0.2,1.1-0.9,1.1-1.6c0.2-2.1,0.4-4.2,1.2-6.2
				c0.2-0.5,0.4-0.9,0.7-1.3c0.3-0.5,0.8-0.6,1.2-0.3c0.5,0.3,0.7,1,0.4,1.4c-0.6,1.1-1.2,2.1-1.7,3.2c-0.4,0.9-0.7,1.9-1,2.9
				c-0.2,0.8-0.3,1.7-0.5,2.5c0,0.2,0,0.5,0.1,0.7c0.1,0,0.1,0,0.2,0c0.2-0.3,0.3-0.6,0.5-0.8c0.3-0.5,0.5-0.9,0.9-1.3
				c0.5-0.6,1.1-0.5,1.5,0.1c0.3,0.4,0.5,0.8,0.7,1.2c0.1,0.2,0.2,0.4,0.4,0.6c0.3,0.4,0.6,0.4,0.8,0c0.4-0.5,0.7-1,1-1.5
				C19.2,27.9,19.4,27.7,19.5,27.5L19.5,27.5z"/>
			<path fill="#FFFFFF" d="M31.7,26.3c-1.6,0.7-2.6,1.8-3.2,3.2c-0.2,0.5-0.2,1-0.2,1.5c0,0.4,0.3,0.6,0.6,0.5
				c0.4-0.2,0.9-0.4,1.2-0.7c0.9-0.8,1.6-1.8,2.1-3c0.1-0.2,0.2-0.5,0.2-0.8c0.1-0.8-0.2-1.4-1.1-1.7c-0.6-0.2-1.3-0.4-1.9-0.6
				c-0.3-0.1-0.5-0.2-0.8-0.3c-0.8-0.4-1.1-1.1-0.8-2c0.4-1.2,1.2-1.8,2.3-2.2c0.1,0,0.2-0.1,0.3-0.1c0.4-0.1,0.5-0.3,0.5-0.7
				s0.2-0.6,0.6-0.6c0.3,0,0.5,0.1,0.5,0.4c0,0.6,0.1,1.1,0.1,1.7c0,0.3-0.1,0.5-0.3,0.8c-0.1,0.3-0.3,0.5-0.4,0.7
				c-0.1,0.2-0.4,0.3-0.6,0.6c-0.1-1-0.1-1.9,0-2.9c-1.3,0.1-2.6,1.3-2.9,2.5c-0.1,0.7,0.1,1.3,0.8,1.5c0.7,0.2,1.4,0.4,2.1,0.5
				c0.9,0.1,1.7,0.5,2.3,1.1c0.5,0.6,0.5,1.3,0.3,2c-0.5,1.8-1.5,3-3.3,3.7c-0.4,0.2-0.9,0.2-1.3,0.2c-0.6-0.1-1-0.7-0.9-1.4
				c0.1-1.8,1.7-3.6,3.4-4.1C31.5,26.3,31.5,26.3,31.7,26.3z"/>
			<path fill="#FFFFFF" d="M19.5,27.5c0.1-0.2,0.2-0.4,0.3-0.6c0.2-0.3,0.5-0.5,0.9-0.3c0.4,0.1,0.6,0.3,0.6,0.7
				c0,0.6,0,1.1,0.1,1.7c0,0.1,0,0.2,0,0.4c0.2-0.2,0.3-0.2,0.3-0.4c0.3-0.5,0.6-1.1,0.9-1.6c0.2-0.3,0.4-0.4,0.7-0.4
				c0.3,0.1,0.5,0.2,0.6,0.6s0.2,0.7,0.2,1.1c0.1,0.3,0.1,0.7,0.2,1.1c0.2-0.2,0.4-0.3,0.5-0.4c0.3-0.6,0.6-1.1,0.9-1.7
				c0.1-0.1,0.1-0.2,0.3-0.3c-0.4,0.8-0.7,1.6-1.1,2.3c-0.3,0.6-1.1,0.6-1.5-0.1c-0.2-0.4-0.2-0.9-0.4-1.3c-0.1-0.3-0.1-0.5-0.2-0.8
				h-0.1c-0.2,0.4-0.3,0.7-0.5,1.1s-0.5,0.8-0.7,1.2c-0.1,0.1-0.3,0.3-0.5,0.2c-0.2-0.1-0.5-0.2-0.6-0.5c-0.2-0.5-0.2-0.9-0.3-1.4
				c0-0.2,0-0.4-0.1-0.5C20,27.3,19.9,27.2,19.5,27.5L19.5,27.5z"/>
			<path fill="#FFFFFF" d="M6.7,21.2c-0.5,0.6-1,1.2-1.7,1.5c-0.4,0.2-0.9,0.5-1.3,0.6c-0.9,0.3-1.7-0.2-1.9-1
				c-0.1-0.4-0.1-0.8,0.2-1.2c0.1,0.2,0.2,0.3,0.3,0.4c0.5,0.7,1.3,0.6,2.1,0.5c0.4-0.1,0.8-0.2,1.2-0.3C5.9,21.6,6.3,21.4,6.7,21.2
				z"/>
			<path fill="#FFFFFF" d="M36.3,30.3c0,0.3-0.3,0.5-0.6,0.5s-0.4-0.1-0.4-0.4c0-0.4,0.2-0.6,0.6-0.6C36.2,29.8,36.3,30,36.3,30.3z"
				/>
		</g>
	</g>
	<g>
		<g>
			<path fill="#231F20" d="M1.1,36.1c-0.7-0.4-0.9-0.8-0.8-1.7c0.2-1.5,0.9-2.8,1.8-4c1-1.3,2.2-2.3,3.7-3.1
				c0.2-0.1,0.3-0.2,0.3-0.5c0-1.1,0-2.2,0-3.3c0-1,0.3-2,1.1-2.6c0.3-0.2,0.6-0.4,1-0.6c-0.8,0.9-0.8,2-0.8,3.1s0.2,2.1,0.2,3.2
				c0.2,0.1,0.4,0.1,0.6,0.2c0,0,0,0,0,0.1c-0.1,0-0.2,0-0.2,0c-0.3-0.1-0.4,0.1-0.4,0.3c0,0.8,0,1.6-0.1,2.4c-0.2,1-0.5,1.9-1,2.8
				c-0.8,1.3-2,2.2-3.3,2.9c-0.4,0.2-0.9,0.3-1.4,0.5C1.6,36.1,1.3,36.1,1.1,36.1z M6.1,27.5C6,27.5,6,27.5,6.1,27.5
				c-0.2,0-0.3,0.1-0.4,0.1c-2.3,1.2-3.8,3.1-4.8,5.4c-0.3,0.7-0.4,1.4-0.3,2.2c0.1,0.5,0.3,0.6,0.8,0.6c1.2,0,2.1-0.5,2.8-1.4
				C5.7,32.4,6,30,6.1,27.5z"/>
			<path fill="#231F20" d="M19.5,27.5L19.5,27.5c-0.4,0.9-0.8,1.8-1.3,2.6c-0.5,0.8-1.4,0.8-1.9,0c-0.3-0.4-0.5-0.9-0.7-1.3
				c-0.1-0.3-0.2-0.5-0.4-0.8c-0.2-0.3-0.4-0.3-0.6,0c-0.3,0.5-0.5,1-0.7,1.5c-0.1,0.3-0.2,0.6-0.4,0.8c-0.1,0.1-0.3,0.3-0.3,0.2
				c-0.1,0-0.3-0.2-0.3-0.4c-0.1-0.2-0.1-0.4-0.1-0.7c0-0.5,0-1,0-1.5c-0.5,0.4-0.9,1.1-1.7,0.6c-0.2,0.4-0.4,0.8-0.6,1.2
				c-0.2,0.4-0.5,0.4-0.9,0.2c-0.5-0.3-0.8-0.7-0.8-1.3c-0.1-1.1,0.1-2.1,1-2.9c0.5-0.4,1.1-0.2,1.3,0.3c-1.2,0.9-1.9,2.5-1.6,3.5
				c0,0.1,0.1,0.2,0.1,0.3c0.1,0.2,0.3,0.3,0.5,0c0.4-0.6,0.8-1.2,0.6-2.1c-0.1-0.3,0-0.5,0-0.8c0-0.1,0.1-0.2,0.2-0.3
				c0.1,0.1,0.3,0.2,0.3,0.3c0,0.4-0.1,0.7-0.1,1.1c0,0.5,0.2,0.6,0.5,0.5c0.7-0.2,1.1-0.9,1.1-1.6c0.2-2.1,0.4-4.2,1.2-6.2
				c0.2-0.5,0.4-0.9,0.7-1.3c0.3-0.5,0.8-0.6,1.2-0.3c0.5,0.3,0.7,1,0.4,1.4c-0.6,1.1-1.2,2.1-1.7,3.2c-0.4,0.9-0.7,1.9-1,2.9
				c-0.2,0.8-0.3,1.7-0.5,2.5c0,0.2,0,0.5,0.1,0.7c0.1,0,0.1,0,0.2,0c0.2-0.3,0.3-0.6,0.5-0.8c0.3-0.5,0.5-0.9,0.9-1.3
				c0.5-0.6,1.1-0.5,1.5,0.1c0.3,0.4,0.5,0.8,0.7,1.2c0.1,0.2,0.2,0.4,0.4,0.6c0.3,0.4,0.6,0.4,0.8,0c0.4-0.5,0.7-1,1-1.5
				C19.2,27.9,19.4,27.7,19.5,27.5L19.5,27.5z"/>
			<path fill="#231F20" d="M31.7,26.3c-1.6,0.7-2.6,1.8-3.2,3.2c-0.2,0.5-0.2,1-0.2,1.5c0,0.4,0.3,0.6,0.6,0.5
				c0.4-0.2,0.9-0.4,1.2-0.7c0.9-0.8,1.6-1.8,2.1-3c0.1-0.2,0.2-0.5,0.2-0.8c0.1-0.8-0.2-1.4-1.1-1.7c-0.6-0.2-1.3-0.4-1.9-0.6
				c-0.3-0.1-0.5-0.2-0.8-0.3c-0.8-0.4-1.1-1.1-0.8-2c0.4-1.2,1.2-1.8,2.3-2.2c0.1,0,0.2-0.1,0.3-0.1c0.4-0.1,0.5-0.3,0.5-0.7
				s0.2-0.6,0.6-0.6c0.3,0,0.5,0.1,0.5,0.4c0,0.6,0.1,1.1,0.1,1.7c0,0.3-0.1,0.5-0.3,0.8c-0.1,0.3-0.3,0.5-0.4,0.7
				c-0.1,0.2-0.4,0.3-0.6,0.6c-0.1-1-0.1-1.9,0-2.9c-1.3,0.1-2.6,1.3-2.9,2.5c-0.1,0.7,0.1,1.3,0.8,1.5c0.7,0.2,1.4,0.4,2.1,0.5
				c0.9,0.1,1.7,0.5,2.3,1.1c0.5,0.6,0.5,1.3,0.3,2c-0.5,1.8-1.5,3-3.3,3.7c-0.4,0.2-0.9,0.2-1.3,0.2c-0.6-0.1-1-0.7-0.9-1.4
				c0.1-1.8,1.7-3.6,3.4-4.1C31.5,26.3,31.5,26.3,31.7,26.3z"/>
			<path fill="#231F20" d="M19.5,27.5c0.1-0.2,0.2-0.4,0.3-0.6c0.2-0.3,0.5-0.5,0.9-0.3c0.4,0.1,0.6,0.3,0.6,0.7
				c0,0.6,0,1.1,0.1,1.7c0,0.1,0,0.2,0,0.4c0.2-0.2,0.3-0.2,0.3-0.4c0.3-0.5,0.6-1.1,0.9-1.6c0.2-0.3,0.4-0.4,0.7-0.4
				c0.3,0.1,0.5,0.2,0.6,0.6s0.2,0.7,0.2,1.1c0.1,0.3,0.1,0.7,0.2,1.1c0.2-0.2,0.4-0.3,0.5-0.4c0.3-0.6,0.6-1.1,0.9-1.7
				c0.1-0.1,0.1-0.2,0.3-0.3c-0.4,0.8-0.7,1.6-1.1,2.3c-0.3,0.6-1.1,0.6-1.5-0.1c-0.2-0.4-0.2-0.9-0.4-1.3c-0.1-0.3-0.1-0.5-0.2-0.8
				h-0.1c-0.2,0.4-0.3,0.7-0.5,1.1s-0.5,0.8-0.7,1.2c-0.1,0.1-0.3,0.3-0.5,0.2c-0.2-0.1-0.5-0.2-0.6-0.5c-0.2-0.5-0.2-0.9-0.3-1.4
				c0-0.2,0-0.4-0.1-0.5C20,27.3,19.9,27.2,19.5,27.5L19.5,27.5z"/>
			<path fill="#231F20" d="M6.7,21.2c-0.5,0.6-1,1.2-1.7,1.5c-0.4,0.2-0.9,0.5-1.3,0.6c-0.9,0.3-1.7-0.2-1.9-1
				c-0.1-0.4-0.1-0.8,0.2-1.2c0.1,0.2,0.2,0.3,0.3,0.4c0.5,0.7,1.3,0.6,2.1,0.5c0.4-0.1,0.8-0.2,1.2-0.3C5.9,21.6,6.3,21.4,6.7,21.2
				z"/>
			<path fill="#231F20" d="M36.3,30.3c0,0.3-0.3,0.5-0.6,0.5s-0.4-0.1-0.4-0.4c0-0.4,0.2-0.6,0.6-0.6C36.2,29.8,36.3,30,36.3,30.3z"
				/>
		</g>
	</g>
</g>
<g>
	<g>
		<path fill="#FFFFFF" d="M0.8,36c-0.7-0.4-0.9-0.8-0.8-1.7c0.2-1.5,0.9-2.8,1.8-4C2.8,29,4,28,5.5,27.2c0.2-0.1,0.3-0.2,0.3-0.5
			c0-1.1,0-2.2,0-3.3c0-1,0.3-2,1.1-2.6c0.3-0.2,0.6-0.4,1-0.6c-0.8,0.9-0.8,2-0.8,3.1s0.2,2.1,0.2,3.2c0.2,0.1,0.4,0.1,0.6,0.2
			c0,0,0,0,0,0.1c-0.1,0-0.2,0-0.2,0c-0.3-0.1-0.4,0.1-0.4,0.3c0,0.8,0,1.6-0.1,2.4c-0.2,1-0.5,1.9-1,2.8c-0.8,1.3-2,2.2-3.3,2.9
			c-0.4,0.2-0.9,0.3-1.4,0.5C1.3,36,1,36,0.8,36z M5.8,27.4C5.7,27.4,5.7,27.4,5.8,27.4c-0.2,0-0.3,0.1-0.4,0.1
			c-2.3,1.2-3.8,3.1-4.8,5.4c-0.3,0.7-0.4,1.4-0.3,2.2c0.1,0.5,0.3,0.6,0.8,0.6c1.2,0,2.1-0.5,2.8-1.4C5.4,32.3,5.7,29.9,5.8,27.4z"
			/>
		<path fill="#FFFFFF" d="M19.2,27.4L19.2,27.4c-0.4,0.9-0.8,1.8-1.3,2.6c-0.5,0.8-1.4,0.8-1.9,0c-0.3-0.4-0.5-0.9-0.7-1.3
			c-0.1-0.3-0.2-0.5-0.4-0.8s-0.4-0.3-0.6,0c-0.3,0.5-0.5,1-0.7,1.5c-0.1,0.3-0.2,0.6-0.4,0.8c-0.1,0.1-0.3,0.3-0.3,0.2
			c-0.1,0-0.3-0.2-0.3-0.4c-0.1-0.2-0.1-0.4-0.1-0.7c0-0.5,0-1,0-1.5c-0.5,0.4-0.9,1.1-1.7,0.6c-0.2,0.4-0.4,0.8-0.6,1.2
			C10,30,9.7,30,9.3,29.8c-0.5-0.3-0.8-0.7-0.8-1.3c-0.1-1.1,0.1-2.1,1-2.9c0.5-0.4,1.1-0.2,1.3,0.3c-1.2,0.9-1.9,2.5-1.6,3.5
			c0,0.1,0.1,0.2,0.1,0.3c0.1,0.2,0.3,0.3,0.5,0c0.4-0.6,0.8-1.2,0.6-2.1c-0.1-0.3,0-0.5,0-0.8c0-0.1,0.1-0.2,0.2-0.3
			c0.1,0.1,0.3,0.2,0.3,0.3c0,0.4-0.1,0.7-0.1,1.1c0,0.5,0.2,0.6,0.5,0.5c0.7-0.2,1.1-0.9,1.1-1.6c0.2-2.1,0.4-4.2,1.2-6.2
			c0.2-0.5,0.4-0.9,0.7-1.3c0.3-0.5,0.8-0.6,1.2-0.3c0.5,0.3,0.7,1,0.4,1.4c-0.6,1.1-1.2,2.1-1.7,3.2c-0.4,0.9-0.7,1.9-1,2.9
			c-0.2,0.8-0.3,1.7-0.5,2.5c0,0.2,0,0.5,0.1,0.7c0.1,0,0.1,0,0.2,0c0.2-0.3,0.3-0.6,0.5-0.8c0.3-0.5,0.5-0.9,0.9-1.3
			c0.5-0.6,1.1-0.5,1.5,0.1c0.3,0.4,0.5,0.8,0.7,1.2c0.1,0.2,0.2,0.4,0.4,0.6c0.3,0.4,0.6,0.4,0.8,0c0.4-0.5,0.7-1,1-1.5
			C18.9,27.8,19.1,27.6,19.2,27.4L19.2,27.4z"/>
		<path fill="#FFFFFF" d="M31.4,26.2c-1.6,0.7-2.6,1.8-3.2,3.2c-0.2,0.5-0.2,1-0.2,1.5c0,0.4,0.3,0.6,0.6,0.5
			c0.4-0.2,0.9-0.4,1.2-0.7c0.9-0.8,1.6-1.8,2.1-3c0.1-0.2,0.2-0.5,0.2-0.8c0.1-0.8-0.2-1.4-1.1-1.7c-0.6-0.2-1.3-0.4-1.9-0.6
			c-0.3-0.1-0.5-0.2-0.8-0.3c-0.8-0.4-1.1-1.1-0.8-2c0.4-1.2,1.2-1.8,2.3-2.2c0.1,0,0.2-0.1,0.3-0.1c0.4-0.1,0.5-0.3,0.5-0.7
			s0.2-0.6,0.6-0.6c0.3,0,0.5,0.1,0.5,0.4c0,0.6,0.1,1.1,0.1,1.7c0,0.3-0.1,0.5-0.3,0.8c-0.1,0.3-0.3,0.5-0.4,0.7
			c-0.1,0.2-0.4,0.3-0.6,0.6c-0.1-1-0.1-1.9,0-2.9c-1.3,0.1-2.6,1.3-2.9,2.5c-0.1,0.7,0.1,1.3,0.8,1.5c0.7,0.2,1.4,0.4,2.1,0.5
			c0.9,0.1,1.7,0.5,2.3,1.1c0.5,0.6,0.5,1.3,0.3,2c-0.5,1.8-1.5,3-3.3,3.7c-0.4,0.2-0.9,0.2-1.3,0.2c-0.6-0.1-1-0.7-0.9-1.4
			c0.1-1.8,1.7-3.6,3.4-4.1C31.2,26.2,31.2,26.2,31.4,26.2z"/>
		<path fill="#FFFFFF" d="M19.2,27.4c0.1-0.2,0.2-0.4,0.3-0.6c0.2-0.3,0.5-0.5,0.9-0.3c0.4,0.1,0.6,0.3,0.6,0.7c0,0.6,0,1.1,0.1,1.7
			c0,0.1,0,0.2,0,0.4c0.2-0.2,0.3-0.2,0.3-0.4c0.3-0.5,0.6-1.1,0.9-1.6c0.2-0.3,0.4-0.4,0.7-0.4c0.3,0.1,0.5,0.2,0.6,0.6
			s0.2,0.7,0.2,1.1c0.1,0.3,0.1,0.7,0.2,1.1c0.2-0.2,0.4-0.3,0.5-0.4c0.3-0.6,0.6-1.1,0.9-1.7c0.1-0.1,0.1-0.2,0.3-0.3
			c-0.4,0.8-0.7,1.6-1.1,2.3c-0.3,0.6-1.1,0.6-1.5-0.1c-0.2-0.4-0.2-0.9-0.4-1.3c-0.1-0.3-0.1-0.5-0.2-0.8h-0.1
			c-0.2,0.4-0.3,0.7-0.5,1.1s-0.5,0.8-0.7,1.2c-0.1,0.1-0.3,0.3-0.5,0.2c-0.2-0.1-0.5-0.2-0.6-0.5c-0.2-0.5-0.2-0.9-0.3-1.4
			c0-0.2,0-0.4-0.1-0.5C19.7,27.2,19.6,27.1,19.2,27.4L19.2,27.4z"/>
		<path fill="#FFFFFF" d="M6.4,21.1c-0.5,0.6-1,1.2-1.7,1.5c-0.4,0.2-0.9,0.5-1.3,0.6c-0.9,0.3-1.7-0.2-1.9-1
			c-0.1-0.4-0.1-0.8,0.2-1.2c0.1,0.2,0.2,0.3,0.3,0.4c0.5,0.7,1.3,0.6,2.1,0.5c0.4-0.1,0.8-0.2,1.2-0.3C5.6,21.5,6,21.3,6.4,21.1z"
			/>
		<path fill="#FFFFFF" d="M36,30.2c0,0.3-0.3,0.5-0.6,0.5S35,30.6,35,30.3c0-0.4,0.2-0.6,0.6-0.6C35.9,29.7,36,29.9,36,30.2z"/>
	</g>
</g>
</svg>
